<svg viewBox="0 0 340 334" class="css-1j8o68f">
    <defs id="SvgjsDefs1243"></defs>
    <g id="SvgjsG1244" featurekey="rootContainer" transform="matrix(1,0,0,1,0,0)" fill="#59606d">
        <rect xmlns="http://www.w3.org/2000/svg" width="340" height="334" rx="10" ry="10"></rect>
    </g>
    <g id="SvgjsG1245" featurekey="monogramFeature-0" transform="matrix(2.6614620685577393,0,0,2.6614620685577393,101.57913420208624,2.9125557085600917)" fill="#f0fff3">
        <path d="M6.2695 41.367000000000004 l-3.1055 0 c1.7578 -10.137 9.668 -20.889 19.043 -24.141 c9.6387 -3.3691 17.607 -1.7285 26.045 2.8418 l-2.8125 12.1 l-4.6289 0 c-0.67383 -1.6406 -0.23438 -4.8633 -7.0313 -5.4492 c-9.668 -0.84961 -16.025 7.6172 -17.168 14.648 l3.1055 0 c-0.58594 3.6621 0.20508 6.9727 2.6953 8.3203 c1.6406 0.87891 4.0137 1.2891 7.5293 0.87891 l0.058594 0 l1.084 -4.7461 l-6.9727 0 l1.0254 -4.4531 l-3.1641 0 l1.5234 -6.5625 l21.504 0 l-1.4941 6.5625 l3.1348 0 l-3.7207 16.143 c-1.4941 0.61523 -3.0469 1.1133 -4.5996 1.6406 c-6.9727 2.1387 -15.908 3.5742 -22.852 0.79102 c-8.2324 -3.2227 -10.547 -10.723 -9.1992 -18.574 z"></path>
    </g>
    <g id="SvgjsG1246" featurekey="nameFeature-0" transform="matrix(3.6746692657470703,0,0,3.6746692657470703,20,150.87261789349088)" fill="#f0fff3">
        <path d="M5.92 40.32 l-0.88 0 c-2.8 0 -5.04 -2.24 -5.04 -5.04 l0 -19.28 c0 -2.8 2.24 -5.08 5.04 -5.08 l0.88 0 c2.8 0 5.04 2.28 5.04 5.08 l0 2.04 l-3.92 0 l0 -2.04 c0 -0.68 -0.48 -1.16 -1.12 -1.16 l-0.88 0 c-0.6 0 -1.16 0.48 -1.16 1.16 l0 19.28 c0 0.6 0.56 1.16 1.16 1.16 l0.88 0 c0.64 0 1.12 -0.56 1.12 -1.16 l0 -10.4 l-2.24 0 l0 -3.88 l6.16 0 l0 14.28 c0 2.8 -2.24 5.04 -5.04 5.04 z M23.36 40 l-1.44 -9.88 l-4.04 0 l-1.32 9.88 l-3.84 0 l4.32 -28.6 l5.16 0 l5 28.6 l-3.84 0 z M18.4 26.32 l2.96 0 l-1.52 -10.4 z M32.96 36.24 l5.52 0 l0 3.76 l-9.28 0 l0 -28.72 l3.76 0 l0 24.96 z M50.480000000000004 40 l-1.44 -9.88 l-4.04 0 l-1.32 9.88 l-3.84 0 l4.32 -28.6 l5.16 0 l5 28.6 l-3.84 0 z M45.52 26.32 l2.96 0 l-1.52 -10.4 z M66.72 40.08 l-4.08 0 l-2.2 -6.04 l-0.88 0 l0 6.04 l-3.8 0 l0 -28.64 l5.96 0 c2.64 0 4.76 2.12 4.76 4.76 l0 13.08 c0 1.72 -0.88 3.2 -2.24 4.04 z M59.56 15.239999999999998 l0 15 l2.16 0 c0.52 0 0.96 -0.44 0.96 -0.96 l0 -13.08 c0 -0.52 -0.44 -0.96 -0.96 -0.96 l-2.16 0 z M81.64 11.36 l0 3.84 l-4.76 0 l0 24.84 l-3.84 0 l0 -24.84 l-5.24 0 l0 -3.84 l13.84 0 z"></path>
    </g>
</svg>